<mxfile host="app.diagrams.net" agent="Mozilla/5.0 (Windows NT 10.0; Win64; x64) AppleWebKit/537.36 (KHTML, like Gecko) Chrome/114.0.0.0 YaBrowser/23.7.1.1266 (corp) Yowser/2.5 Safari/537.36" version="24.7.10">
  <diagram name="Страница — 1" id="KTXpk_BuxzXxB06XGAHL">
    <mxGraphModel dx="2132" dy="1217" grid="1" gridSize="10" guides="1" tooltips="1" connect="1" arrows="1" fold="1" page="1" pageScale="1" pageWidth="827" pageHeight="1169" math="0" shadow="0">
      <root>
        <mxCell id="0" />
        <mxCell id="1" parent="0" />
        <mxCell id="_iEhPyKYfhSXm9bdfcBp-16" value="A,B" style="shape=parallelogram;perimeter=parallelogramPerimeter;whiteSpace=wrap;html=1;fixedSize=1;fontSize=16;" vertex="1" parent="1">
          <mxGeometry x="1120" y="190" width="140" height="60" as="geometry" />
        </mxCell>
        <mxCell id="_iEhPyKYfhSXm9bdfcBp-17" value="" style="group;fontSize=16;" vertex="1" connectable="0" parent="1">
          <mxGeometry x="1120" y="90" width="140" height="60" as="geometry" />
        </mxCell>
        <mxCell id="_iEhPyKYfhSXm9bdfcBp-18" value="&lt;span style=&quot;color: rgba(0, 0, 0, 0); font-family: monospace; text-align: start; text-wrap-mode: nowrap;&quot;&gt;А&lt;/span&gt;" style="strokeWidth=2;html=1;shape=mxgraph.flowchart.terminator;whiteSpace=wrap;fontSize=16;" vertex="1" parent="_iEhPyKYfhSXm9bdfcBp-17">
          <mxGeometry width="140" height="60" as="geometry" />
        </mxCell>
        <mxCell id="_iEhPyKYfhSXm9bdfcBp-19" value="begin" style="text;html=1;align=center;verticalAlign=middle;whiteSpace=wrap;rounded=0;fontSize=16;" vertex="1" parent="_iEhPyKYfhSXm9bdfcBp-17">
          <mxGeometry x="40" y="15" width="60" height="30" as="geometry" />
        </mxCell>
        <mxCell id="_iEhPyKYfhSXm9bdfcBp-20" style="edgeStyle=orthogonalEdgeStyle;rounded=0;orthogonalLoop=1;jettySize=auto;html=1;fontSize=16;" edge="1" parent="1" source="_iEhPyKYfhSXm9bdfcBp-18" target="_iEhPyKYfhSXm9bdfcBp-16">
          <mxGeometry relative="1" as="geometry" />
        </mxCell>
        <mxCell id="_iEhPyKYfhSXm9bdfcBp-22" style="edgeStyle=orthogonalEdgeStyle;rounded=0;orthogonalLoop=1;jettySize=auto;html=1;fontSize=16;" edge="1" parent="1" source="_iEhPyKYfhSXm9bdfcBp-24" target="_iEhPyKYfhSXm9bdfcBp-26">
          <mxGeometry relative="1" as="geometry" />
        </mxCell>
        <mxCell id="_iEhPyKYfhSXm9bdfcBp-23" style="edgeStyle=orthogonalEdgeStyle;rounded=0;orthogonalLoop=1;jettySize=auto;html=1;fontSize=16;entryX=0.5;entryY=0;entryDx=0;entryDy=0;" edge="1" parent="1" source="_iEhPyKYfhSXm9bdfcBp-24" target="_iEhPyKYfhSXm9bdfcBp-6">
          <mxGeometry relative="1" as="geometry">
            <mxPoint x="1430" y="550" as="targetPoint" />
          </mxGeometry>
        </mxCell>
        <mxCell id="_iEhPyKYfhSXm9bdfcBp-24" value="a&amp;gt;0 b b&amp;gt;0?" style="rhombus;whiteSpace=wrap;html=1;fontSize=16;" vertex="1" parent="1">
          <mxGeometry x="1120" y="410" width="140" height="80" as="geometry" />
        </mxCell>
        <mxCell id="_iEhPyKYfhSXm9bdfcBp-26" value="S=a*b" style="rounded=0;whiteSpace=wrap;html=1;fontSize=16;" vertex="1" parent="1">
          <mxGeometry x="890" y="525" width="140" height="60" as="geometry" />
        </mxCell>
        <mxCell id="_iEhPyKYfhSXm9bdfcBp-29" value="Да" style="text;html=1;align=center;verticalAlign=middle;whiteSpace=wrap;rounded=0;" vertex="1" parent="1">
          <mxGeometry x="1053" y="400" width="60" height="30" as="geometry" />
        </mxCell>
        <mxCell id="_iEhPyKYfhSXm9bdfcBp-30" value="Нет" style="text;html=1;align=center;verticalAlign=middle;whiteSpace=wrap;rounded=0;" vertex="1" parent="1">
          <mxGeometry x="1283" y="400" width="60" height="30" as="geometry" />
        </mxCell>
        <mxCell id="_iEhPyKYfhSXm9bdfcBp-31" value="Истина" style="text;html=1;align=center;verticalAlign=middle;whiteSpace=wrap;rounded=0;" vertex="1" parent="1">
          <mxGeometry x="1053" y="430" width="60" height="30" as="geometry" />
        </mxCell>
        <mxCell id="_iEhPyKYfhSXm9bdfcBp-32" value="Ложь" style="text;html=1;align=center;verticalAlign=middle;whiteSpace=wrap;rounded=0;" vertex="1" parent="1">
          <mxGeometry x="1283" y="430" width="60" height="30" as="geometry" />
        </mxCell>
        <mxCell id="_iEhPyKYfhSXm9bdfcBp-50" value="S,P" style="shape=document;whiteSpace=wrap;html=1;boundedLbl=1;fontSize=16;" vertex="1" parent="1">
          <mxGeometry x="890" y="770" width="140" height="80" as="geometry" />
        </mxCell>
        <mxCell id="_iEhPyKYfhSXm9bdfcBp-51" style="edgeStyle=orthogonalEdgeStyle;rounded=0;orthogonalLoop=1;jettySize=auto;html=1;fontSize=16;entryX=0.5;entryY=0;entryDx=0;entryDy=0;entryPerimeter=0;" edge="1" parent="1" source="_iEhPyKYfhSXm9bdfcBp-50" target="_iEhPyKYfhSXm9bdfcBp-52">
          <mxGeometry relative="1" as="geometry">
            <mxPoint x="1150" y="1110" as="targetPoint" />
          </mxGeometry>
        </mxCell>
        <mxCell id="_iEhPyKYfhSXm9bdfcBp-52" value="&lt;span style=&quot;color: rgba(0, 0, 0, 0); font-family: monospace; text-align: start; text-wrap-mode: nowrap;&quot;&gt;А&lt;/span&gt;" style="strokeWidth=2;html=1;shape=mxgraph.flowchart.terminator;whiteSpace=wrap;fontSize=16;" vertex="1" parent="1">
          <mxGeometry x="1130" y="990" width="140" height="60" as="geometry" />
        </mxCell>
        <mxCell id="_iEhPyKYfhSXm9bdfcBp-53" value="end" style="text;html=1;align=center;verticalAlign=middle;whiteSpace=wrap;rounded=0;fontSize=16;" vertex="1" parent="1">
          <mxGeometry x="1170" y="1005" width="60" height="30" as="geometry" />
        </mxCell>
        <mxCell id="_iEhPyKYfhSXm9bdfcBp-54" value="" style="rounded=0;whiteSpace=wrap;html=1;align=center;" vertex="1" parent="1">
          <mxGeometry x="144" y="60" width="786" height="60" as="geometry" />
        </mxCell>
        <mxCell id="_iEhPyKYfhSXm9bdfcBp-55" value="&lt;p style=&quot;margin-left: 0cm; font-size: 15px;&quot; class=&quot;a&quot;&gt;&lt;i style=&quot;background-color: initial;&quot;&gt;&lt;span style=&quot;mso-bidi-font-family:&amp;quot;Times New Roman&amp;quot;;letter-spacing:.1pt&quot;&gt;&lt;span style=&quot;font-style: normal; font-variant-numeric: normal; font-variant-east-asian: normal; font-variant-alternates: normal; font-kerning: auto; font-optical-sizing: auto; font-feature-settings: normal; font-variation-settings: normal; font-stretch: normal; line-height: normal; font-family: &amp;quot;Times New Roman&amp;quot;;&quot;&gt;&lt;br&gt;&lt;/span&gt;&lt;/span&gt;&lt;/i&gt;&lt;span style=&quot;background-color: initial; letter-spacing: 0.4pt;&quot;&gt;3.Даны стороны прямоугольника &lt;i&gt;a &lt;/i&gt;и &lt;i&gt;b. &lt;/i&gt;Найти его площадь &lt;/span&gt;&lt;i style=&quot;background-color: initial;&quot;&gt;&lt;span style=&quot;letter-spacing:.4pt;mso-ansi-language:EN-US&quot; lang=&quot;EN-US&quot;&gt;S&lt;/span&gt;&lt;span style=&quot;letter-spacing:.4pt&quot;&gt; = a&lt;/span&gt;&lt;/i&gt;&lt;b style=&quot;background-color: initial;&quot;&gt;∙&lt;/b&gt;&lt;i style=&quot;background-color: initial;&quot;&gt;&lt;span style=&quot;letter-spacing:&lt;br/&gt;.4pt&quot;&gt;b &lt;/span&gt;&lt;/i&gt;&lt;span style=&quot;background-color: initial; letter-spacing: 0.4pt;&quot;&gt;и &lt;/span&gt;&lt;span style=&quot;background-color: initial; letter-spacing: 0.1pt;&quot;&gt;периметр &lt;i&gt;P = 2&lt;/i&gt;&lt;/span&gt;&lt;b style=&quot;background-color: initial;&quot;&gt;∙&lt;/b&gt;&lt;i style=&quot;background-color: initial;&quot;&gt;&lt;span style=&quot;letter-spacing:.1pt&quot;&gt;(a + b).&lt;/span&gt;&lt;/i&gt;&lt;/p&gt;&lt;p style=&quot;margin-left:0cm;mso-list:l0 level1 lfo1&quot; class=&quot;a&quot;&gt;&lt;i&gt;&lt;span style=&quot;letter-spacing:.1pt&quot;&gt;&lt;/span&gt;&lt;/i&gt;&lt;/p&gt;" style="text;html=1;align=center;verticalAlign=middle;whiteSpace=wrap;rounded=0;" vertex="1" parent="1">
          <mxGeometry x="180" width="690" height="160" as="geometry" />
        </mxCell>
        <mxCell id="_iEhPyKYfhSXm9bdfcBp-60" value="" style="endArrow=classic;html=1;rounded=0;exitX=0.5;exitY=1;exitDx=0;exitDy=0;entryX=0.5;entryY=0;entryDx=0;entryDy=0;" edge="1" parent="1" source="_iEhPyKYfhSXm9bdfcBp-16" target="_iEhPyKYfhSXm9bdfcBp-24">
          <mxGeometry width="50" height="50" relative="1" as="geometry">
            <mxPoint x="810" y="630" as="sourcePoint" />
            <mxPoint x="860" y="580" as="targetPoint" />
          </mxGeometry>
        </mxCell>
        <mxCell id="_iEhPyKYfhSXm9bdfcBp-61" value="" style="rounded=0;whiteSpace=wrap;html=1;" vertex="1" parent="1">
          <mxGeometry x="890" y="650" width="160" height="60" as="geometry" />
        </mxCell>
        <mxCell id="_iEhPyKYfhSXm9bdfcBp-62" value="P=2*(a+b)" style="text;html=1;align=center;verticalAlign=middle;whiteSpace=wrap;rounded=0;fontSize=17;" vertex="1" parent="1">
          <mxGeometry x="880" y="650" width="160" height="60" as="geometry" />
        </mxCell>
        <mxCell id="_iEhPyKYfhSXm9bdfcBp-63" value="" style="endArrow=classic;html=1;rounded=0;entryX=0.5;entryY=0;entryDx=0;entryDy=0;exitX=0.5;exitY=1;exitDx=0;exitDy=0;" edge="1" parent="1" source="_iEhPyKYfhSXm9bdfcBp-26" target="_iEhPyKYfhSXm9bdfcBp-62">
          <mxGeometry width="50" height="50" relative="1" as="geometry">
            <mxPoint x="810" y="630" as="sourcePoint" />
            <mxPoint x="860" y="580" as="targetPoint" />
          </mxGeometry>
        </mxCell>
        <mxCell id="_iEhPyKYfhSXm9bdfcBp-6" value="" style="shape=document;whiteSpace=wrap;html=1;boundedLbl=1;" vertex="1" parent="1">
          <mxGeometry x="1370" y="545" width="120" height="80" as="geometry" />
        </mxCell>
        <mxCell id="_iEhPyKYfhSXm9bdfcBp-66" value="Ошибка" style="text;html=1;align=center;verticalAlign=middle;whiteSpace=wrap;rounded=0;fontSize=19;" vertex="1" parent="1">
          <mxGeometry x="1400" y="560" width="60" height="30" as="geometry" />
        </mxCell>
        <mxCell id="_iEhPyKYfhSXm9bdfcBp-67" value="" style="endArrow=classic;html=1;rounded=0;entryX=0.5;entryY=0;entryDx=0;entryDy=0;entryPerimeter=0;exitX=0;exitY=0.5;exitDx=0;exitDy=0;" edge="1" parent="1" source="_iEhPyKYfhSXm9bdfcBp-6" target="_iEhPyKYfhSXm9bdfcBp-52">
          <mxGeometry width="50" height="50" relative="1" as="geometry">
            <mxPoint x="810" y="930" as="sourcePoint" />
            <mxPoint x="860" y="880" as="targetPoint" />
            <Array as="points">
              <mxPoint x="1200" y="585" />
            </Array>
          </mxGeometry>
        </mxCell>
        <mxCell id="_iEhPyKYfhSXm9bdfcBp-68" value="" style="endArrow=classic;html=1;rounded=0;entryX=0.5;entryY=0;entryDx=0;entryDy=0;exitX=0.5;exitY=1;exitDx=0;exitDy=0;" edge="1" parent="1" source="_iEhPyKYfhSXm9bdfcBp-62" target="_iEhPyKYfhSXm9bdfcBp-50">
          <mxGeometry width="50" height="50" relative="1" as="geometry">
            <mxPoint x="890" y="770" as="sourcePoint" />
            <mxPoint x="940" y="720" as="targetPoint" />
          </mxGeometry>
        </mxCell>
      </root>
    </mxGraphModel>
  </diagram>
</mxfile>
